<svg xmlns="http://www.w3.org/2000/svg" xmlns:xlink="http://www.w3.org/1999/xlink" width="200" zoomAndPan="magnify" viewBox="0 0 150 112.499997" height="150" preserveAspectRatio="xMidYMid meet" version="1.0"><defs><clipPath id="babc7fff59"><path d="M 4.613281 13.640625 L 145.738281 13.640625 L 145.738281 98.015625 L 4.613281 98.015625 Z M 4.613281 13.640625 " clip-rule="nonzero"/></clipPath></defs><g clip-path="url(#babc7fff59)"><path fill="#ffffff" d="M 93.976562 98.125 C 92.578125 97.730469 91.449219 97 90.402344 95.808594 C 88.910156 94.113281 88.769531 93.304688 88.769531 86.480469 C 88.769531 83.1875 88.730469 80.492188 88.6875 80.492188 C 88.644531 80.492188 87.648438 80.9375 86.476562 81.480469 C 82.539062 83.304688 78.824219 84.125 74.46875 84.125 C 67.207031 84.125 60.546875 81.519531 55.351562 76.652344 L 53.59375 75.003906 L 51.976562 76.5 C 48.160156 80.035156 44.089844 82.199219 38.652344 83.59375 C 36.546875 84.136719 30.28125 84.25 27.835938 83.792969 C 20.992188 82.519531 13.644531 78.195312 11.871094 74.402344 C 11.074219 72.699219 11.058594 70.496094 11.824219 68.742188 C 12.542969 67.105469 14.335938 65.492188 16.035156 64.957031 C 18.578125 64.15625 21.007812 64.78125 23.511719 66.878906 C 25.058594 68.175781 26.179688 68.789062 28.222656 69.472656 C 31.839844 70.683594 35.503906 70.414062 39.007812 68.6875 C 41.070312 67.667969 43.863281 65.328125 43.339844 65.050781 C 43.175781 64.964844 35.585938 63.589844 26.472656 61.992188 C 8.507812 58.847656 8.261719 58.785156 6.726562 57.085938 C 5.28125 55.484375 4.925781 54.523438 4.941406 52.238281 C 4.972656 47.464844 7.9375 41.167969 12.3125 36.59375 C 17.710938 30.945312 24.960938 27.835938 32.714844 27.847656 C 37.179688 27.855469 39.3125 28.402344 41.074219 29.992188 C 43.296875 32 43.933594 35.421875 42.585938 38.128906 C 41.8125 39.683594 40.808594 40.625 39.078125 41.429688 C 37.964844 41.945312 37.597656 42.003906 35.890625 41.921875 C 29.679688 41.632812 26.957031 42.339844 23.480469 45.148438 C 22.019531 46.328125 21.632812 46.855469 22.109375 47.019531 C 22.484375 47.148438 45.691406 51.21875 46.050781 51.21875 C 46.269531 51.21875 46.328125 47.773438 46.328125 35.257812 C 46.328125 17.265625 46.257812 18.0625 48.0625 16.054688 C 50.949219 12.847656 55.546875 12.835938 58.417969 16.03125 C 60.042969 17.835938 60.171875 18.542969 60.171875 25.484375 C 60.171875 28.777344 60.226562 31.472656 60.292969 31.472656 C 60.359375 31.472656 61.03125 31.160156 61.785156 30.78125 C 63.769531 29.777344 67.441406 28.601562 69.933594 28.167969 C 72.347656 27.746094 77.683594 27.8125 79.917969 28.289062 C 85.222656 29.421875 89.960938 31.917969 93.945312 35.675781 L 95.6875 37.316406 L 97.449219 35.660156 C 100.632812 32.664062 104.214844 30.507812 108.144531 29.226562 C 111.53125 28.125 112.644531 27.960938 116.910156 27.960938 C 121.175781 27.960938 122.285156 28.121094 125.6875 29.230469 C 137.25 33.003906 145.050781 43.78125 145.050781 55.984375 C 145.050781 63.671875 142.253906 70.398438 136.789062 75.863281 C 131.28125 81.375 124.621094 84.125 116.789062 84.125 C 112.492188 84.125 108.792969 83.304688 104.902344 81.488281 C 103.730469 80.941406 102.734375 80.492188 102.691406 80.492188 C 102.648438 80.492188 102.609375 83.179688 102.609375 86.464844 C 102.609375 93.554688 102.503906 94.128906 100.796875 95.996094 C 98.988281 97.972656 96.351562 98.796875 93.976562 98.125 Z M 97.53125 97.179688 C 99.007812 96.738281 100.5 95.441406 101.164062 94.007812 C 101.6875 92.882812 101.699219 92.734375 101.703125 85.882812 C 101.703125 82.042969 101.75 78.902344 101.804688 78.902344 C 101.859375 78.902344 102.519531 79.265625 103.273438 79.707031 C 107.136719 81.972656 112.015625 83.261719 116.796875 83.28125 C 124.277344 83.316406 130.890625 80.589844 136.207031 75.277344 C 141.464844 70.027344 144.207031 63.386719 144.183594 55.984375 C 144.15625 48.503906 141.433594 41.925781 136.199219 36.691406 C 132.390625 32.882812 128.132812 30.570312 122.355469 29.167969 C 120.417969 28.695312 113.148438 28.757812 111.082031 29.261719 C 105.941406 30.511719 101.488281 32.917969 97.847656 36.417969 L 96.242188 37.960938 L 97.710938 40.152344 C 99.910156 43.441406 101.601562 47.390625 102.070312 50.320312 C 102.265625 51.523438 102.46875 51.59375 102.820312 50.582031 C 103.390625 48.945312 105.125 46.480469 106.800781 44.914062 C 109.65625 42.246094 112.957031 40.953125 116.910156 40.945312 C 119.453125 40.941406 121.363281 41.382812 123.605469 42.488281 C 128.773438 45.039062 131.960938 50.183594 131.960938 55.984375 C 131.960938 64.402344 125.300781 71.0625 116.910156 71.039062 C 111.007812 71.023438 105.898438 67.808594 103.34375 62.511719 C 102.878906 61.542969 102.433594 60.753906 102.355469 60.75 C 102.277344 60.75 102.148438 61.164062 102.070312 61.667969 C 101.601562 64.578125 99.507812 69.390625 97.457031 72.265625 C 95.960938 74.363281 93.140625 77.242188 91.292969 78.5625 L 89.703125 79.699219 L 89.691406 86.292969 L 89.675781 92.886719 L 90.261719 94.0625 C 91.632812 96.816406 94.546875 98.0625 97.53125 97.179688 Z M 37.601562 82.863281 C 42.574219 81.976562 47.5 79.488281 51.492188 75.847656 C 52.992188 74.480469 53.144531 74.160156 52.53125 73.65625 C 51.921875 73.15625 49.996094 70.09375 49.050781 68.125 C 47.148438 64.167969 46.566406 61.5625 46.402344 56.265625 C 46.328125 53.988281 46.183594 52.125 46.082031 52.125 C 45.976562 52.125 40.117188 51.105469 33.054688 49.855469 C 25.992188 48.609375 20.160156 47.585938 20.089844 47.585938 C 20.019531 47.585938 20.40625 47.058594 20.945312 46.414062 C 22.269531 44.828125 24.101562 43.410156 26.019531 42.484375 C 28.367188 41.351562 29.953125 41.015625 32.828125 41.046875 C 37.820312 41.101562 38.019531 41.085938 38.96875 40.601562 C 41.203125 39.460938 42.679688 36.78125 42.394531 34.378906 C 42.234375 33.019531 41.246094 31.144531 40.308594 30.433594 C 38.71875 29.21875 37.617188 28.929688 34.09375 28.804688 C 28.882812 28.621094 25.171875 29.347656 20.945312 31.367188 C 17.867188 32.84375 15.871094 34.253906 13.414062 36.691406 C 10.128906 39.953125 8.222656 43.03125 6.730469 47.484375 C 5.316406 51.691406 5.410156 54.117188 7.070312 56.210938 C 8.425781 57.921875 8.582031 57.960938 27.5625 61.308594 C 37.148438 62.996094 45.042969 64.378906 45.105469 64.378906 C 45.363281 64.378906 44.730469 65.1875 43.492188 66.441406 C 37.695312 72.3125 29.039062 72.640625 22.542969 67.242188 C 20.992188 65.949219 19.910156 65.527344 18.175781 65.519531 C 14.523438 65.507812 11.753906 68.59375 12.132812 72.261719 C 12.371094 74.585938 14.167969 76.632812 18.195312 79.167969 C 23.96875 82.800781 30.734375 84.089844 37.601562 82.863281 Z M 79.515625 82.847656 C 80.480469 82.667969 82.058594 82.261719 83.027344 81.945312 C 84.992188 81.304688 88.546875 79.613281 88.683594 79.25 C 88.734375 79.121094 88.746094 75.089844 88.714844 70.292969 L 88.65625 61.566406 L 87.585938 63.402344 C 82.742188 71.742188 72.128906 73.601562 64.601562 67.433594 C 63.425781 66.46875 61.703125 64.269531 61.007812 62.847656 C 60.75 62.316406 60.480469 61.882812 60.40625 61.882812 C 60.335938 61.882812 60.042969 62.738281 59.753906 63.785156 C 59.070312 66.253906 57.167969 70.160156 55.554688 72.394531 C 54.847656 73.367188 54.273438 74.253906 54.273438 74.359375 C 54.273438 74.464844 54.960938 75.1875 55.804688 75.960938 C 60.179688 79.984375 65.574219 82.46875 71.519531 83.199219 C 73.578125 83.453125 77.128906 83.296875 79.515625 82.847656 Z M 93.761719 75.285156 C 99.023438 69.996094 101.703125 63.476562 101.703125 55.964844 C 101.703125 51.558594 100.8125 47.664062 98.933594 43.84375 C 98.070312 42.085938 95.992188 38.960938 95.691406 38.960938 C 95.386719 38.960938 93.3125 42.078125 92.441406 43.84375 C 91.382812 45.988281 90.441406 48.875 90.042969 51.199219 C 89.734375 52.996094 89.675781 55.371094 89.675781 66.019531 L 89.675781 78.699219 L 90.753906 77.960938 C 91.347656 77.558594 92.699219 76.351562 93.761719 75.285156 Z M 54.976562 71.8125 C 56.496094 69.675781 58.164062 66.179688 58.960938 63.472656 C 60.117188 59.527344 59.6875 56.992188 57.550781 55.113281 C 57.011719 54.636719 56.183594 54.125 55.707031 53.972656 C 54.382812 53.550781 47.417969 52.355469 47.167969 52.507812 C 46.878906 52.6875 47.171875 58.476562 47.589844 60.863281 C 48.207031 64.386719 49.746094 68.171875 51.824219 71.277344 C 52.917969 72.910156 53.367188 73.457031 53.621094 73.457031 C 53.722656 73.457031 54.332031 72.71875 54.976562 71.8125 Z M 78.914062 69.488281 C 83.414062 67.976562 87.046875 64.117188 88.234375 59.585938 C 88.730469 57.691406 88.730469 54.273438 88.234375 52.378906 C 87.234375 48.5625 84.355469 45.042969 80.804688 43.289062 C 76.679688 41.253906 72.261719 41.253906 68.136719 43.289062 C 64.710938 44.980469 61.859375 48.382812 60.777344 52.0625 C 58.699219 59.132812 62.648438 66.816406 69.671875 69.378906 C 72.5625 70.433594 75.976562 70.472656 78.914062 69.488281 Z M 121.289062 69.507812 C 123.730469 68.683594 125.007812 67.882812 126.90625 65.984375 C 128.808594 64.082031 129.589844 62.832031 130.46875 60.296875 C 130.972656 58.847656 131.058594 58.203125 131.058594 55.984375 C 131.058594 53.742188 130.972656 53.125 130.453125 51.609375 C 128.671875 46.441406 124.429688 42.839844 119.097656 41.96875 C 117.105469 41.644531 116.710938 41.644531 114.71875 41.96875 C 109.160156 42.878906 104.546875 47.023438 103.144531 52.378906 C 102.648438 54.273438 102.648438 57.691406 103.144531 59.585938 C 104.523438 64.839844 109.136719 69.078125 114.53125 70.054688 C 116.335938 70.378906 119.445312 70.128906 121.289062 69.507812 Z M 59.578125 53.65625 C 60.191406 48.164062 65.082031 42.808594 70.839844 41.324219 C 72.769531 40.824219 76.171875 40.824219 78.101562 41.324219 C 80.894531 42.042969 82.785156 43.160156 85.035156 45.414062 C 86.699219 47.085938 87.257812 47.824219 87.984375 49.34375 C 88.476562 50.371094 88.945312 51.214844 89.023438 51.214844 C 89.097656 51.214844 89.289062 50.578125 89.4375 49.800781 C 90.046875 46.6875 91.84375 42.722656 94.136719 39.445312 L 95.160156 37.976562 L 93.460938 36.355469 C 92.527344 35.46875 90.980469 34.199219 90.027344 33.539062 C 88.402344 32.414062 84.359375 30.363281 83.09375 30.023438 C 82.78125 29.9375 81.761719 29.660156 80.824219 29.40625 C 78.617188 28.804688 73.058594 28.574219 70.351562 28.96875 C 67.667969 29.359375 64.53125 30.410156 61.78125 31.835938 C 60.480469 32.511719 59.382812 33.0625 59.339844 33.0625 C 59.300781 33.0625 59.265625 29.917969 59.265625 26.070312 L 59.265625 19.082031 L 58.679688 17.902344 C 57.945312 16.433594 56.664062 15.316406 55.152344 14.828125 C 53.691406 14.355469 52.8125 14.355469 51.351562 14.828125 C 49.796875 15.328125 48.535156 16.457031 47.761719 18.035156 L 47.125 19.332031 L 47.058594 35.273438 L 46.992188 51.21875 L 47.511719 51.4375 C 47.796875 51.558594 49.5625 51.921875 51.4375 52.242188 C 55.828125 52.992188 56.757812 53.308594 58.070312 54.503906 C 58.753906 55.125 59.203125 55.386719 59.292969 55.222656 C 59.367188 55.078125 59.496094 54.375 59.578125 53.65625 Z M 59.578125 53.65625 " fill-opacity="1" fill-rule="nonzero"/></g></svg>